<svg xmlns="http://www.w3.org/2000/svg" version="1.1" xmlns:xlink="http://www.w3.org/1999/xlink" width="512"
     height="512" x="0" y="0" viewBox="0 0 115 115" style="enable-background:new 0 0 512 512" xml:space="preserve"
     class="">
    <g>
        <g fill="#ffffff">
            <path d="M46.727 80.117c1.77 2.06 2.17 5.26.83 7.64 2.69.99 4.65 3.72 4.72 6.59.07 2.86-1.75 5.69-4.39 6.81-2.64 1.12-5.94.46-7.95-1.59-.03 2.34-1.68 4.5-3.84 5.4-4.005 1.676-8.64-.708-10.94-4.33-.54-.86-.78-1.7-1.03-2.67-.27-1.03-.48-.34-1.31-.02-3.3 1.27-7.66-.75-9.49-3.56-2.14-3.29-1.6-8.06 1.22-10.79-2.03-.77-2.53-3.52-1.91-5.61 1.554-5.174 7.419-7.71 12.26-5.3 3.807-3.315 10.215-1.986 11.91 3.42"
                  fill="#ffffff" opacity="1" data-original="#e4e4e4" class=""></path>
            <path
                    d="M38.727 91.777c.11-.19.21-.39.3-.58 2.62-5.47 6.46-9.94 10.68-14.24 2.52-2.56 5.38-4.79 8.49-6.59-1.19-1.68-1.97-3.61-2.43-5.64-15.229 6.555-23.43 15.48-25.25 16.77"
                    fill="#ffffff" opacity="1" data-original="#e4e4e4" class=""></path>
            <path
                    d="M23.802 83.852c-.542-1.135-.707-2.493-.23-3.657.737-1.803 3.09-2.738 4.865-1.933s2.62 3.192 1.75 4.935c1.905-1.37 4.89-.868 6.242 1.05s.825 4.897-1.105 6.233c1.567-.034 3.33.927 4.258 2.188.929 1.262 1.059 3.117.159 4.4-.9 1.282-2.839 1.766-4.153.913"
                    fill="#ffffff" opacity="1" data-original="#e4e4e4" class=""></path>
        </g>
        <path fill="#ffffff"
              d="M94.607 43.747c-.41.29-5.08 3.23-4.93 3.51 1.3 2.43 2.13 5.09 2.46 7.82-3.712-2.537-9.37-3.154-15.65.23-1.82-.34-3.64-.67-5.45-1.01-4.393-.799-9.076-1.718-12.05-5.27 1.01-1.14 2.08-1.57 3.48-2.15 10.127 5.533 14.183 4.887 19.43 3.17 5.612-1.833 3.859-5.061 5.72-6.39.33-.24.71-.36 1.09-.49 4.88-1.73 8.65-6.29 9.41-11.42.9-6.07-2.52-10.19-5.83-14.74.09.02.19.03.28.05.01 0 .01.01.01.01 9.397 5.863 11.812 19.072 2.03 26.68z"
              opacity="1" data-original="#e4e4e4"
              class=""></path>
        <path
                d="M94.372 56.064c-.49-.566-.437-.475-.614-.657a10.789 10.789 0 0 0-.919-.76 22.985 22.985 0 0 0-2.255-7.272c.814-.644 2.966-2.043 3.748-2.55 9.96-6.47 9.708-20.943-.772-28.009.465-3.967-1.739-6.902-4.655-8.02-.647-.25-1.285.46-.92 1.082.718 1.226.83 2.96-.017 4.38-8.674-2.296-17.647 2.777-20.926 10.152-1.906 4.26-1.803 9.251-1.357 14.055a49.653 49.653 0 0 0-9.512 5.93c-.075-.06-.142-.132-.219-.188-.566-.406-.998-.512-1.641-.402-.012.002-.761.203-1.34.573-1.34-.838-3.079-1.1-4.792-.703-2.881.654-7.294 3.948-6.232 6.94.185.53.543.972.986 1.262-.902 1.9.21 4.055 2.335 4.347-.372 2.008 1.305 3.292 3.125 3.11.772-.07 1.461-.357 2.133-.715.475.696 1.316 1.036 2.14 1.036.754 0 1.308-.25 1.9-.713-.095 1.589.009 3.513.356 5.349A83.22 83.22 0 0 0 37.14 74.904c-2.29-5.016-8.372-6.13-12.352-3.095-5.259-2.277-11.248.566-12.87 5.964-.633 2.135-.22 4.737 1.44 6.011-2.488 3.044-2.819 7.692-.659 11.012 2.368 3.636 7.876 5.302 10.783 3.664.238.897.507 1.726 1.043 2.578 1.073 1.69 2.657 3.15 4.46 4.11 4.777 2.552 10.278.491 11.504-4.14 2.21 1.534 5.195 1.898 7.692.839 2.931-1.243 4.925-4.335 4.847-7.519-.071-2.908-1.867-5.657-4.457-6.95.937-2.303.59-5.13-.875-7.21 3.234-3.539 5.988-6.196 10.32-8.804 1.857 2.388 4.297 4.023 6.93 4.96 6.27 2.222 7.682.462 8.52.746 1.007.329 1.41.942 2.963 1.213-.943 1.327-1.92 2.672-2.566 4.165-2.592 1.531-4.252 3.02-6.108 4.913-1.493 1.697-1.135 3.059.442 4.423a55.292 55.292 0 0 0 14.1 8.86c.467.204 1.012.404 1.587.46a55.829 55.829 0 0 0 5.937 3.027c.886.397 1.782.68 2.689.338 1.295-.483 1.39-1.543 1.682-2.525.524-1.8.322-3.511-.842-5.008-1.235-1.587-2.423-1.078-3.305-1.796-1.176-.938-.429-3.322-.928-5.048 4.42-5.13 8.923-9.916 11.293-15.586 1.887-4.512 2.135-9.31.679-13.165-1.271-3.35-4.964-4.775-6.716-5.277zm-25.96-31.043c2.875-6.467 10.607-11.12 18.38-9.48-.301.221-.62.416-.968.552a.75.75 0 0 0 .545 1.397c2.369-.923 4.072-3.466 3.633-6.323 2.765 2.312 2.741 6.199.603 8.523-.442.48-.097 1.258.552 1.258a.747.747 0 0 0 .552-.243 7.326 7.326 0 0 0 1.437-2.33c9.176 6.619 9.293 19.393.368 25.192-4.76 3.093-4.893 3.307-4.498 4.044a21.365 21.365 0 0 1 2.124 6.041c-4.985-2.38-10.136-1.623-15.018 1.011-.627-.208-8.21-.36-16.523-5.809 11.924-6.473 11.789-6.261 12.608-7.178 1.795-2.01.52-4.593-2.016-4.678-1.08-.057-2.07.366-3.064.793-.385-4.43-.414-8.974 1.285-12.77zM57.247 45.437c3.415-2.684 6.927-4.72 10.683-6.36.792-.337 1.506-.602 2.201-.58 1.3.044 1.89 1.134.956 2.18-.617.69-.708.615-12.55 7.045-.233-.673-.768-1.653-1.29-2.285zm-4.116 12.638c-.42.159-.917.081-1.211-.148a7.646 7.646 0 0 0 1.986-2.732.75.75 0 0 0-1.38-.587 6.137 6.137 0 0 1-1.692 2.284c-.023-.002-.044-.015-.068-.015a.748.748 0 0 0-.375.1c-.749.434-1.427.799-2.14.864-.544.06-1.24-.154-1.457-.656-.264-.6.214-1.38.272-1.57a15.835 15.835 0 0 1 2.266-1.772.75.75 0 1 0-.813-1.26c-.596.383-2.322 1.63-2.632 2.132-1.633.234-2.337-1.71-1.257-2.653a.748.748 0 0 0 .234-.384c.387-.35.833-.639 1.326-.811a.75.75 0 1 0-.494-1.416 5.443 5.443 0 0 0-1.92 1.174.995.995 0 0 1-.413-.509c-.663-1.866 3.067-4.505 5.154-4.979 1.505-.35 3.069-.035 4.087.823a.75.75 0 0 0 1.19-.323c.237-.135.646-.314.759-.351.245-.04.276-.04.523.137 1.197.873 2.056 2.386 2.21 3.403a.69.69 0 0 0 .03.13c.015.238.086.714-.079 1.125-.187.465-.583.72-.817.738a.75.75 0 0 0-.692.795 9.1 9.1 0 0 1-1.072 4.868c-.453.845-.966 1.382-1.525 1.593zm-6.228 29.313a.75.75 0 0 0 .394 1.072c2.39.88 4.168 3.363 4.23 5.905.062 2.542-1.592 5.108-3.933 6.101-2.342.994-5.338.395-7.122-1.424a.75.75 0 0 0-1.285.515c-.025 1.96-1.414 3.899-3.38 4.718-3.677 1.54-7.93-.753-10.015-4.037-1.071-1.705-.72-3.15-1.678-3.508-.67-.252-1.054.319-1.567.516-2.956 1.139-6.976-.787-8.592-3.269-1.929-2.965-1.43-7.38 1.113-9.841a.75.75 0 0 0-.255-1.24c-1.582-.6-1.989-2.905-1.458-4.694 1.422-4.732 6.777-7.05 11.208-4.844.27.135.597.094.826-.105 3.231-2.814 8.725-1.982 10.532 2.615-3.101 2.506-3.74 3.261-4.907 4.274-.059-.1-.53-1.775-2.267-2.563-2.169-.982-4.974.141-5.87 2.332-.524 1.282-.434 2.836.248 4.265a.75.75 0 1 0 1.353-.647c-.864-1.81-.498-3.822 1.414-4.581 2.724-1.081 4.638 1.885 3.624 3.914-.35.698.475 1.4 1.109.944.746-.536 1.753-.748 2.766-.577 3.683.62 3.806 5.042 1.507 6.634-.57.394-.367 1.33.442 1.367 1.26-.045 2.827.782 3.638 1.883.765 1.04.83 2.554.149 3.523-.693.99-2.185 1.33-3.13.716a.75.75 0 0 0-.818 1.258c1.627 1.056 4.04.507 5.176-1.112 1.082-1.542 1.098-4.053-.704-5.878 1.526-3.143 3.545-6.339 7.023-10.305 1.133 1.824 1.255 4.25.23 6.073zm2.268-10.957c-3.728 3.799-7.903 8.46-10.718 14.245a6.558 6.558 0 0 0-1.55-.717c2.188-3.023.854-7.517-3.263-8.21a5.484 5.484 0 0 0-2.362.115l-.001-.016c1.95-1.495 9.854-9.816 23.978-16.08.413 1.501 1.026 2.993 1.88 4.356a40.96 40.96 0 0 0-7.964 6.307zm25.436-.507a8.244 8.244 0 0 0 2.467-4.181.75.75 0 0 0-1.461-.34c-.65 2.79-2.759 3.948-2.994 4.21a7.78 7.78 0 0 0-.476.121c-2.127.608-4.685-.11-6.695-.824-7.64-2.716-10.4-10.341-9.105-18.487.56-1.228.841-2.596.89-3.777.066-.208.136-.416.21-.62.726-.406 1.183-1.115 1.338-1.915a37.753 37.753 0 0 0 15.332 5.78c-2.533 1.664-4.485 3.38-6.65 5.332-.715.681.278 1.762 1 1.118 1.088-.964 2.543-2.3 4.435-3.752 1.198 4.418 4.754 8.236 9.115 9.736-.468 1.15-2.444 5.1-4.64 8.568-1.57-.168-1.305-.25-2.766-.969zm2.804 3.567c2.532-3.552 5.363-8.966 6.028-10.685.044-.153 1.23-2.434.73-4.72a.744.744 0 0 0-.893-.572.75.75 0 0 0-.572.893c.16.733.103 1.55-.172 2.512-4.11-1.4-7.423-5.099-8.326-9.305 2.702-1.886 5.74-3.38 9.048-3.793 5.168-.673 9.282 1.752 10.584 4.059.744 1.208 1.532 4.374 1 8.036-1.086 7.466-6.748 13.436-12.278 19.797-.037-.023-.065-.057-.106-.073-.431-.173-.699.081-1.111.329-.643-1.312-1.475-1.5-2.7-1.329-.1 0-.953.208-1.859-.258a2.855 2.855 0 0 1-1.382-1.688c.532-1.106 1.274-2.17 2.01-3.203zm5.984 14.113c.628.157.867.276 1.24.763.771.99.937 2.029.685 3.227-1.217-.679-6.802-1.606-13.796-7.036 2.483-.508 4.157-2.725 3.878-5.312.217.176.444.338.691.468 1.882.967 3.195.103 3.578.447 1.666 1.52-1.185 6.172 3.724 7.443zm-9.764-9.238c.495 1.066.38 2.414-.3 3.373-.69.978-1.953 1.543-3.142 1.405a.734.734 0 0 0-.338.05c-.52-.446-.303-.247-.903-.916 1.132-1.23 2.803-2.677 4.683-3.912zm17.294 12.728c.653.164.884.306 1.24.763.775.996.933 2.016.684 3.229-1.062-.595-2.226-.549-6.24-2.429.016-.056.037-.137.05-.188h-.002l.016-.056c.031-.366.925-2.68-.85-4.963-1.383-1.804-3.076-.956-3.695-2.308-.523-.974-.257-2.45-.379-3.675l.07-.044c.771 1.412 2.372 2.458 4.371 2.22.758-.087.878-.111 1.01.007 1.378 1.257-.356 4.856 1.903 6.658.559.455 1.236.645 1.822.786zm8.1-23.167c-2.24 5.36-6.484 9.895-10.672 14.755-.694-.737-1.475-.629-2.336-.53-1.09.13-2.029-.27-2.643-1.086 5.745-6.598 11.807-12.981 12.951-20.97.368-2.575.202-5.508-.731-8.004 2.028.894 3.507 2.239 4.091 3.78 1.322 3.499 1.081 7.893-.66 12.055z"
                fill="#ffffff" opacity="1" data-original="#000000" class=""></path>
        <path
                d="M63.218 54.375a.75.75 0 0 0-.054 1.06c1.555 1.721.918 4.501-1.238 5.369-.908.366-.374 1.769.56 1.392 3.122-1.257 4.048-5.267 1.791-7.767a.75.75 0 0 0-1.059-.054zM42.517 42.335C46.874 37.92 52.6 34.71 58.64 33.297a.75.75 0 0 0-.342-1.46c-6.311 1.477-12.294 4.831-16.847 9.444a.75.75 0 1 0 1.067 1.054zM51.793 31.095a.746.746 0 0 0 .403-.118 22.072 22.072 0 0 1 6.964-2.926.75.75 0 0 0-.337-1.462 23.582 23.582 0 0 0-7.435 3.125.75.75 0 0 0 .405 1.381zM86.124 28.05a1.833 1.833 0 1 0 .25-3.657 1.833 1.833 0 0 0-.25 3.657zM96.636 31.787a1.833 1.833 0 1 0 .251-3.656 1.833 1.833 0 0 0-.25 3.656z"
                fill="#ffffff" opacity="1" data-original="#000000" class=""></path>
        <circle cx="88.671" cy="33.073" r="2.115"
                fill="#ffffff" opacity="1"
                data-original="#000000"
                class=""></circle>
        <path
                d="M98.908 16.52a.75.75 0 0 0 .711-.513l.62-1.862a.75.75 0 1 0-1.423-.473l-.62 1.861a.75.75 0 0 0 .712.987zM102.852 16.994l-3.154.569c-.895.162-.776 1.488.132 1.488.128 0 .001.008 3.288-.58a.75.75 0 0 0-.266-1.477zM70.727 31.572h.006a.75.75 0 0 0 .744-.756c-.034-3.88 1.92-7.673 5.099-9.898a.75.75 0 1 0-.86-1.229c-3.578 2.504-5.777 6.773-5.74 11.14a.75.75 0 0 0 .75.743zM79.133 19.172a5.21 5.21 0 0 1 1.46-.735.75.75 0 1 0-.457-1.428 6.722 6.722 0 0 0-1.878.944.75.75 0 0 0 .875 1.219z"
                fill="#ffffff" opacity="1" data-original="#000000" class=""></path>
</g>
</svg>